<svg width="16" height="17" viewBox="0 0 16 17" fill="none" xmlns="http://www.w3.org/2000/svg">
<g clip-path="url(#clip0_4387_33061)">
<mask id="mask0_4387_33061" style="mask-type:luminance" maskUnits="userSpaceOnUse" x="0" y="0" width="16" height="17">
<path d="M0 0.500001H16V16.5H0V0.500001Z" fill="white"/>
</mask>
<g mask="url(#mask0_4387_33061)">
<path d="M11.9409 10.4979C11.9409 10.4979 12.5401 13.1677 10.4803 14.5005C9.10606 15.3897 7.666 14.8658 6.85959 14.4185C6.51322 14.2264 6.44941 13.7547 6.72947 13.4746L7.78897 12.4151L11.9409 10.4979Z" fill="#FD6E5D"/>
<path d="M5.98296 4.5399C5.98296 4.5399 3.31312 3.94068 1.98031 6.00052C1.09112 7.37471 1.61503 8.81481 2.06228 9.62118C2.2544 9.96756 2.72618 10.0314 3.00625 9.75131L4.06571 8.69184L5.98296 4.5399Z" fill="#FD6E5D"/>
<path d="M5.82147 12.4383L4.04225 10.6591C3.79337 10.4102 3.79337 10.0067 4.04225 9.75778L4.8174 8.98263C5.06631 8.73372 5.46984 8.73372 5.71875 8.98263L7.49797 10.7618C7.74687 11.0107 7.74687 11.4143 7.49797 11.6632L6.72281 12.4383C6.47393 12.6872 6.07037 12.6872 5.82147 12.4383Z" fill="#E66455"/>
<path d="M13.1746 9.92807C11.6726 11.4301 9.75242 12.2589 7.78883 12.415L4.06573 8.69191C4.22183 6.72832 5.05064 4.8082 6.5527 3.30616C7.66733 2.19154 9.01164 1.4476 10.4332 1.07432C10.5037 1.05573 10.5747 1.03816 10.6457 1.02166C12.1708 0.662257 13.7747 0.724883 15.272 1.20898C15.7561 2.70629 15.8187 4.31023 15.4588 5.83479C15.4426 5.90604 15.425 5.97704 15.4065 6.04751C15.0332 7.4691 14.2892 8.81348 13.1746 9.92807Z" fill="#E4E4EF"/>
<path d="M8.31117 5.06455C6.80914 6.56658 5.69061 8.19698 5.0543 9.68042L4.0657 8.69183C4.22183 6.72823 5.05064 4.80811 6.5527 3.30608C7.6673 2.19145 9.01164 1.44751 10.4332 1.07423C10.5037 1.05564 10.5747 1.03808 10.6457 1.02158C12.1705 0.662452 13.7742 0.724765 15.2713 1.20861C14.3002 1.25076 13.1392 1.63114 11.924 2.29989C11.8675 2.3308 11.8106 2.36251 11.754 2.39498C10.6109 3.04673 9.4258 3.94995 8.31117 5.06455Z" fill="#CACADB"/>
<path d="M15.4588 5.83472L10.6457 1.02159C12.1705 0.662467 13.7742 0.724811 15.2713 1.20862C15.2715 1.2089 15.2718 1.20862 15.272 1.2089C15.7562 2.70622 15.8188 4.31015 15.4588 5.83472Z" fill="#E66455"/>
<path d="M15.2713 1.20852C14.3003 1.25071 13.1393 1.63105 11.9241 2.2998L10.6457 1.02149C12.1705 0.662336 13.7743 0.72468 15.2713 1.20852Z" fill="#FD6E5D"/>
<path d="M11.9524 8.92953C13.1678 7.71416 13.1678 5.74369 11.9524 4.52835C10.737 3.31297 8.76659 3.31297 7.55122 4.52835C6.33587 5.74369 6.33587 7.71416 7.55122 8.92953C8.76659 10.1449 10.737 10.1449 11.9524 8.92953Z" fill="#E66455"/>
<path d="M11.0975 8.07467C11.8408 7.33145 11.8408 6.12642 11.0975 5.3832C10.3543 4.63995 9.1493 4.63995 8.40608 5.3832C7.66286 6.12642 7.66286 7.33145 8.40608 8.07467C9.1493 8.81788 10.3543 8.81788 11.0975 8.07467Z" fill="#B9A8FF"/>
<path d="M0.373444 16.1289L3.84026 15.2C4.84591 14.9305 5.18276 13.6734 4.44657 12.9372L3.56519 12.0558C2.82897 11.3196 1.57185 11.6564 1.30238 12.6621L0.373444 16.1289Z" fill="#FDAB19"/>
<path d="M0.373444 16.1289L3.21638 14.5761C4.0411 14.1257 4.60416 13.0948 4.22988 12.7205L3.78185 12.2724C3.4076 11.8982 2.37669 12.4613 1.92622 13.286L0.373444 16.1289Z" fill="#FFCD53"/>
<path d="M10.4801 14.5005C9.10623 15.3897 7.66611 14.8658 6.85948 14.4186C6.51323 14.2266 6.44926 13.7547 6.72948 13.4745L7.78886 12.4151" stroke="#2B2F38" stroke-width="0.5" stroke-miterlimit="10" stroke-linecap="round" stroke-linejoin="round"/>
<path d="M12.0002 10.911C12.0625 11.5771 12.0495 12.9157 11.1494 13.929" stroke="#2B2F38" stroke-width="0.5" stroke-miterlimit="10" stroke-linecap="round" stroke-linejoin="round"/>
<path d="M7.26757 11.8937L6.72269 12.4386C6.47385 12.6875 6.07041 12.6875 5.8216 12.4386L4.04213 10.6591C3.79329 10.4103 3.79329 10.0069 4.04213 9.75802L4.58701 9.21317" stroke="#2B2F38" stroke-width="0.5" stroke-miterlimit="10" stroke-linecap="round" stroke-linejoin="round"/>
<path d="M9.24127 1.48332C9.62995 1.31695 10.0285 1.1806 10.4333 1.07432C10.5037 1.05573 10.5747 1.03816 10.6457 1.02166C12.1708 0.662257 13.7747 0.724883 15.272 1.20898C15.7562 2.70629 15.8187 4.31023 15.4588 5.83479C15.4426 5.90604 15.425 5.97704 15.4065 6.04751C15.0332 7.4691 14.2892 8.81345 13.1746 9.92807C11.6726 11.4301 9.75242 12.2589 7.78883 12.415L4.06573 8.69191C4.22183 6.72832 5.05064 4.80819 6.5527 3.30616C7.14717 2.71166 7.80702 2.22263 8.50905 1.83904" stroke="#2B2F38" stroke-width="0.5" stroke-miterlimit="10" stroke-linecap="round" stroke-linejoin="round"/>
<path d="M15.4588 5.83472L10.6457 1.02159C12.1705 0.662467 13.7742 0.72481 15.2713 1.20862C15.2715 1.2089 15.2718 1.20862 15.272 1.2089C15.7562 2.70622 15.8188 4.31015 15.4588 5.83472Z" stroke="#2B2F38" stroke-width="0.5" stroke-miterlimit="10" stroke-linecap="round" stroke-linejoin="round"/>
<path d="M11.9524 8.92953C13.1678 7.71416 13.1678 5.74369 11.9524 4.52835C10.737 3.31297 8.76659 3.31297 7.55122 4.52835C6.33587 5.74369 6.33587 7.71416 7.55122 8.92953C8.76659 10.1449 10.737 10.1449 11.9524 8.92953Z" stroke="#2B2F38" stroke-width="0.5" stroke-miterlimit="10" stroke-linecap="round" stroke-linejoin="round"/>
<path d="M11.0975 8.07467C11.8408 7.33145 11.8408 6.12642 11.0975 5.3832C10.3543 4.63995 9.1493 4.63995 8.40608 5.3832C7.66286 6.12642 7.66286 7.33145 8.40608 8.07467C9.1493 8.81788 10.3543 8.81788 11.0975 8.07467Z" stroke="#2B2F38" stroke-width="0.5" stroke-miterlimit="10" stroke-linecap="round" stroke-linejoin="round"/>
<path d="M4.0658 8.69183L3.00643 9.75124C2.72618 10.0315 2.25421 9.96746 2.06227 9.62124C1.61505 8.81458 1.09115 7.37446 1.98036 6.00055C2.9903 4.43971 4.76761 4.40546 5.56971 4.48055" stroke="#2B2F38" stroke-width="0.5" stroke-miterlimit="10" stroke-linecap="round" stroke-linejoin="round"/>
<path d="M0.373444 16.1289L3.84026 15.2C4.84591 14.9305 5.18276 13.6734 4.44657 12.9372L3.56519 12.0558C2.82897 11.3196 1.57185 11.6564 1.30238 12.6621L0.373444 16.1289Z" stroke="#2B2F38" stroke-width="0.5" stroke-miterlimit="10" stroke-linecap="round" stroke-linejoin="round"/>
</g>
</g>
<defs>
<clipPath id="clip0_4387_33061">
<rect width="16" height="16" fill="white" transform="translate(0 0.5)"/>
</clipPath>
</defs>
</svg>
